PathFileType	4	(X/Y/Z)	/Users/visionmauri/Downloads/Videos/OAW12-top_Sports2D/OAW12-top_Sports2D_px_person00.trc
DataRate	CameraRate	NumFrames	NumMarkers	Units	OrigDataRate	OrigDataStartFrame	OrigNumFrames
25.0	25.0	13	22	m	25.0	1080	1729
Frame#	Time	Hip			RHip			RKnee			RAnkle			RBigToe			RSmallToe			RHeel			LHip			LKnee			LAnkle			LBigToe			LSmallToe			LHeel			Neck			Head			Nose			RShoulder			RElbow			RWrist			LShoulder			LElbow			LWrist			
		X1	Y1	Z1	X2	Y2	Z2	X3	Y3	Z3	X4	Y4	Z4	X5	Y5	Z5	X6	Y6	Z6	X7	Y7	Z7	X8	Y8	Z8	X9	Y9	Z9	X10	Y10	Z10	X11	Y11	Z11	X12	Y12	Z12	X13	Y13	Z13	X14	Y14	Z14	X15	Y15	Z15	X16	Y16	Z16	X17	Y17	Z17	X18	Y18	Z18	X19	Y19	Z19	X20	Y20	Z20	X21	Y21	Z21	X22	Y22	Z22
1080	43.225	488.748486456622	799.3541894575063	0.0	445.35998078435347	802.5386979147625	0.0	444.3855416725094	960.1401932777177	0.0	462.07220687003246	1032.2007807170855	0.0	460.0095495215635	1101.0969060930458	0.0	443.65804767032773	1080.1066177453972	0.0	469.3161065117235	1035.2193399190983	0.0	530.8027674004318	803.8843253258932	0.0	514.8379091947447	966.4231245160322	0.0	502.57203744311397	1108.1731770193564	0.0	496.0036756752021	1168.5285781048888	0.0	519.4525317084515	1161.7721881168006	0.0	495.1816008079471	1126.949222492108	0.0	500.84781265099036	548.1259345689983	0.0	495.201789320655	432.02696615141747	0.0	496.1970290704553	517.6071127516861	0.0	424.8005674887861	581.909128028736	0.0	392.35619145382327	710.1605740647833	0.0	372.7580452643421	819.3810068204633	0.0	579.161739982559	580.4830934247149	0.0	609.7651452072739	712.7044185988235	0.0	623.4119121300173	821.5102869554051	0.0
1081	43.265023148148146	488.72288854674315	800.96536946232	0.0	443.36345078824695	803.2664698338358	0.0	441.8840633524991	968.9653182178878	0.0	456.5466224446829	1048.4607820727363	0.0	449.17007448550123	1121.1193610373386	0.0	430.7814797519403	1102.1545662749227	0.0	462.49293554083596	1053.9699456398237	0.0	531.2501198195475	804.2354068040304	0.0	515.8967112508286	972.9299898606884	0.0	502.6184809165173	1107.386825513072	0.0	494.8163560733284	1167.7967406519	0.0	518.5419045459122	1161.5023902034322	0.0	495.45776338071283	1124.3626342446755	0.0	501.94744892044326	550.9244768960641	0.0	494.37153294396995	429.52595703193094	0.0	494.4914260514998	522.3151909697153	0.0	424.5787182857344	583.5492276760502	0.0	392.56512639331777	712.436222702576	0.0	374.12351432466016	822.1073680829418	0.0	581.7419568723801	582.90551140436	0.0	612.5081243924167	715.3194519376952	0.0	625.8003421653947	826.2354393978849	0.0
1082	43.3050462962963	488.4820046898853	803.0384649867547	0.0	441.6116489617224	803.0452990566229	0.0	439.38069059374936	974.2951569502006	0.0	450.1449115522068	1072.3545213094471	0.0	443.14897133516286	1142.872376910887	0.0	423.2413325374743	1126.9995586177174	0.0	455.0441777390054	1082.9218217372859	0.0	531.9690844946989	803.5150504879549	0.0	516.4529166028622	977.0862207184051	0.0	502.1361040163753	1108.259971100773	0.0	493.8447862070951	1167.9842378395456	0.0	518.4009010995352	1161.5464196588323	0.0	496.0735940660364	1123.988066761876	0.0	502.2059494281517	554.7439699380627	0.0	491.6703095650113	427.459469777149	0.0	492.7271250454692	525.6455518332469	0.0	423.50312688804405	586.3279465624556	0.0	392.45911445937395	716.0266632563147	0.0	374.4377588577387	824.4834557130837	0.0	582.9668489434388	585.5901860316555	0.0	614.1156746245161	718.3119483352571	0.0	627.6157773465933	831.2738070260204	0.0
1083	43.34506944444444	488.31050808039214	808.9178851557459	0.0	441.5010772230825	806.8318106674761	0.0	437.5963401546914	980.8022016173645	0.0	442.2527526671074	1101.362027937571	0.0	439.27317651897096	1167.545462940673	0.0	417.63039339215527	1154.738468178354	0.0	446.36892531094975	1115.942539618472	0.0	532.8317631086793	807.609476962495	0.0	515.8766843814757	981.6428065154721	0.0	500.8185797693115	1108.811858256547	0.0	493.778465273629	1170.5086481406872	0.0	519.2833750797201	1161.4702499714283	0.0	495.7411332464315	1123.598532487045	0.0	501.6362980121591	560.1763348015016	0.0	489.3006779655306	430.00957452662067	0.0	491.4777687272329	531.155156735323	0.0	421.65757552881007	590.4007959765476	0.0	392.35956444609803	719.238316114727	0.0	373.77016827055724	826.8342329959281	0.0	583.1558234154923	589.3217394321116	0.0	614.7557795032252	722.4995925556963	0.0	627.5561419990404	837.5180630349988	0.0
1084	43.38509259259259	488.07795770135414	816.1191575741301	0.0	441.5291024397069	814.0882201563018	0.0	436.0938119658069	992.3384819931853	0.0	434.19632673426906	1130.3513157904156	0.0	434.36662652230115	1195.5839608674344	0.0	411.0768086690598	1184.9079311837072	0.0	437.6331790270256	1146.8028280991082	0.0	533.2916565645835	815.8628355713975	0.0	514.0964155375489	989.6535396636948	0.0	499.12361275865817	1107.623469460947	0.0	495.15429776757475	1173.9337623253427	0.0	520.0765843542184	1160.548175425384	0.0	493.7772474941372	1121.3669863582984	0.0	500.50856780368485	564.4512948934565	0.0	487.656213645603	433.8360452549001	0.0	489.39944601765984	536.7910317309578	0.0	420.0722257379797	593.5322558876798	0.0	392.264908653323	721.6829657329856	0.0	373.32409587552183	830.3940056256668	0.0	583.274229679483	593.4812768593223	0.0	614.981080309978	727.7564524286008	0.0	626.2196281180802	845.1088877230677	0.0
1085	43.42511574074074	486.9899086923764	821.4464048918476	0.0	439.7646514422424	821.3650676494166	0.0	434.9383273015626	1005.7174683877112	0.0	428.96848750853724	1153.9104825551506	0.0	429.0663755354901	1221.411358605893	0.0	405.3401501521367	1211.352618840762	0.0	431.9210772370088	1171.82823751159	0.0	532.5869104435435	823.1917236113471	0.0	512.38515137463	998.2662814923019	0.0	498.0694063615781	1106.315884195838	0.0	496.73622705658084	1175.91335908225	0.0	520.1763013270356	1160.914988340396	0.0	491.59576941692086	1119.2544817692506	0.0	498.8938807859925	565.8631940121813	0.0	486.0172841335993	434.185744624799	0.0	487.1422623232528	537.0258005021359	0.0	419.36350585329455	595.3651904401435	0.0	391.55794994404465	725.1440698137166	0.0	373.2552616482126	834.9978383342884	0.0	582.9853349305694	597.1523588154863	0.0	615.0420506894569	733.7851299394536	0.0	624.6835549859416	853.1418561284072	0.0
1086	43.46513888888889	484.96349097174914	827.6375007592346	0.0	437.18279200682673	829.3214484351442	0.0	434.07139850792004	1016.6000715782653	0.0	428.08851931237297	1172.0195049869137	0.0	425.70290294137453	1240.3200292113338	0.0	402.15094400103857	1230.6938187831747	0.0	431.11608197572053	1191.4481657522836	0.0	531.1475455397241	830.0500781569039	0.0	511.7898651767506	1002.5792276352029	0.0	498.0127865232855	1107.0727128128985	0.0	497.10262727284106	1176.1965605952216	0.0	520.3517107105279	1164.0906656953805	0.0	491.2024667685669	1119.4234659098677	0.0	496.95264487689394	567.7532351576162	0.0	484.7584241412197	434.24123708225335	0.0	486.86971188389714	533.7860708420217	0.0	418.54268320698714	598.6031047221956	0.0	389.88604097231695	731.2897448770931	0.0	371.7877812216753	840.4020625757488	0.0	581.7550607304014	601.1336662705387	0.0	614.3440151286892	740.3592963995317	0.0	622.4835207708386	860.3519097158638	0.0
1087	43.50516203703704	483.18940470974303	837.4902159480811	0.0	435.1187791166604	839.8628349544866	0.0	432.2873894881561	1025.4389085646283	0.0	428.79778452624987	1189.5426442072924	0.0	425.2192003293178	1254.8533155458383	0.0	400.99690558226735	1247.0886703010515	0.0	432.2989402333385	1209.2428810574274	0.0	530.5820219404396	839.7774306000734	0.0	511.977090869306	1003.5157265410423	0.0	498.52178532032343	1108.9637965410782	0.0	497.3109416223575	1176.3373678375463	0.0	521.3853453764342	1166.0791002282058	0.0	492.7085302005206	1121.0831645359854	0.0	495.08045514975737	572.6725463576563	0.0	484.12715996447366	437.76902394070817	0.0	488.43587615616747	533.1418511628623	0.0	416.23893146490354	604.6706330611753	0.0	387.22475531648104	739.0773922742054	0.0	367.8178801848685	846.99432831445	0.0	580.371842790754	606.6391753238208	0.0	612.4436726543977	746.9564330331086	0.0	619.1475075821937	866.823368979647	0.0
1088	43.54518518518518	481.92761518979796	847.7686708458897	0.0	432.7023201624478	851.6128741844751	0.0	429.78160391345006	1032.3175040679212	0.0	428.47622781943926	1207.0489686145768	0.0	426.5902094299871	1266.3046948343112	0.0	401.7262958043046	1261.460079452088	0.0	432.4891907264782	1225.3383867449709	0.0	530.5542440966749	851.4659149684525	0.0	512.1190016933394	1007.3479533748268	0.0	499.5079710731647	1112.3994500920644	0.0	498.01161230273743	1178.3904616869165	0.0	523.0264103052914	1165.0502382511904	0.0	495.24541882072265	1123.6493481870427	0.0	493.17956612382716	576.9828126922032	0.0	484.0660127713339	440.464092897325	0.0	490.6425100530933	533.6106030062521	0.0	412.66857935949173	610.9732817480195	0.0	383.68232838792505	746.2893013405596	0.0	362.80587328142826	855.5713425440492	0.0	578.7313270052779	612.4220663938187	0.0	609.4580363297003	753.2961162785981	0.0	615.254247890327	873.743910116321	0.0
1089	43.585208333333334	479.4125005667371	854.8825907164057	0.0	428.8991472296413	862.3457205637203	0.0	429.0492766882717	1038.1348806842375	0.0	428.5679785765664	1219.503340518947	0.0	428.3580934106286	1274.1755149683559	0.0	404.46990526623375	1271.1008300506671	0.0	433.3733728958513	1236.3222865879382	0.0	528.1888759340803	862.3338395760576	0.0	511.4328472153866	1015.176171388788	0.0	500.9947468025429	1117.7378079690423	0.0	497.92118663853773	1181.483466405457	0.0	524.7359562608923	1164.8478530747616	0.0	497.4303822058081	1124.6184247495419	0.0	490.06550221361925	577.1950117583569	0.0	483.81367955114945	438.5846924734391	0.0	490.9771084460157	530.8691996067937	0.0	408.66185438925123	614.8440193723335	0.0	379.66380437852354	752.352535827937	0.0	358.03597411185876	865.6479415956111	0.0	575.6104307892441	616.0849057192457	0.0	605.8877095827056	759.2921762312695	0.0	611.715944509346	880.838201256831	0.0
1090	43.62523148148148	475.41485563531614	859.695680055971	0.0	425.084373142317	871.3670417259129	0.0	431.08904592945606	1049.337138023494	0.0	429.7102733111752	1226.5644370899108	0.0	429.900592297338	1286.6717141488127	0.0	407.05369566803284	1282.2317654700425	0.0	434.8517737281801	1243.6045183260703	0.0	523.1061580337878	871.4714904387126	0.0	509.5594418429032	1020.5464673291315	0.0	501.9640587773697	1118.3193846815561	0.0	497.0702521768882	1182.252075346727	0.0	525.6572624178327	1165.8474935544384	0.0	496.7767658114127	1119.5636548150492	0.0	485.15641744671603	577.4740336502198	0.0	481.48370340952687	440.1960282293673	0.0	485.9056317396309	531.1419414850498	0.0	403.5612606681823	618.4401939094623	0.0	374.87750355658665	757.402274157665	0.0	352.50797356132705	873.3573865893205	0.0	571.5844254802238	618.6729362616551	0.0	602.8019562027424	764.783252491275	0.0	608.9457553529845	887.0927751986255	0.0
1091	43.66525462962963	472.4861106048694	864.3064978770091	0.0	423.1764578424541	878.6688760420403	0.0	433.53600807712024	1064.8278483445124	0.0	430.05108001801506	1232.5615220920965	0.0	431.7718893503233	1304.9733390298236	0.0	407.5725648666952	1297.7581839667644	0.0	433.87826422721344	1250.8762405267844	0.0	519.02664654307	878.8042961306737	0.0	507.56718420131483	1020.1167926125868	0.0	501.8682985472678	1111.4397926441495	0.0	496.4041780369702	1180.7522511358598	0.0	524.7359123742837	1165.6137992221393	0.0	493.66069751218123	1111.7777722027895	0.0	479.63254328383084	582.6113724303107	0.0	476.295469199309	453.89832269263593	0.0	477.0588186274801	541.1489161296618	0.0	396.563271935512	624.1970595756206	0.0	368.39410013709954	761.7485530250871	0.0	345.3936243726743	876.855553052806	0.0	568.1089122205299	622.273931078637	0.0	600.2411687197593	769.3821618112507	0.0	606.3165552450337	892.3785412328	0.0
1092	43.70527777777778	470.82630578581814	868.5844625056166	0.0	421.4850464292641	883.5151842565352	0.0	433.3965837403259	1074.1664867507727	0.0	428.89906966542975	1238.0589865126217	0.0	434.37823699662493	1314.8352242548888	0.0	407.2324997653124	1307.0169728506526	0.0	430.897252962501	1257.0958501569712	0.0	517.4800855312079	883.0972641635605	0.0	507.1987896707353	1017.5440624479477	0.0	502.01087512536657	1105.6967793177198	0.0	495.9144733254726	1178.5362849005965	0.0	523.1062979606346	1163.8197591327178	0.0	492.83026007992464	1109.1801033080592	0.0	474.0144553304951	589.0224541149731	0.0	469.7347869861445	469.52381231669136	0.0	469.73660135500984	551.5692369687068	0.0	388.6979583323379	629.3364484093039	0.0	360.4919620902546	766.1256179987762	0.0	337.60226435633365	880.1480306904423	0.0	564.9554583198862	624.8636275750213	0.0	596.9268856544559	772.8589403224634	0.0	603.0198477764768	896.8427203251218	0.0
